<svg xmlns="http://www.w3.org/2000/svg" viewBox="0 0 500 500"><g ><path fill="#2f2f2f" d="M0 0h500v500H0z"/><path d="M320.59 316.15a74.34 74.34 0 01-28.51 29.08q-18.36 10.61-42.08 10.6t-42.08-10.6a74.34 74.34 0 01-28.51-29.08q-10.16-18.48-10.15-41.52t10.15-41.51A74.27 74.27 0 01207.92 204q18.36-10.6 42.08-10.61T292.08 204a74.27 74.27 0 0128.51 29.08q10.16 18.48 10.15 41.51t-10.15 41.56zM210 149.75a21.31 21.31 0 0128.63-.11 18.5 18.5 0 015.7 13.91 18.23 18.23 0 01-5.7 13.69 21.47 21.47 0 01-28.63 0 18 18 0 01-5.82-13.69 18.38 18.38 0 015.82-13.8zm12.55 158.3q10.36 13.11 27.48 13.11t27.48-13.11q10.38-13.11 10.38-33.42t-10.38-33.41Q267.1 228.11 250 228.1t-27.48 13.12q-10.4 13.11-10.38 33.41t10.38 33.42zm39.11-158.41a19.62 19.62 0 0114.14-5.47 19.91 19.91 0 0114.37 5.47 18.47 18.47 0 015.71 13.91 18.2 18.2 0 01-5.71 13.69 19.91 19.91 0 01-14.37 5.47 19.62 19.62 0 01-14.14-5.47 18.19 18.19 0 01-5.7-13.69 18.46 18.46 0 015.67-13.91z" fill="#272727"/></g></svg>