<svg xmlns="http://www.w3.org/2000/svg" viewBox="0 0 60 60"><path d="M17.52 27.57h2.44a20 20 0 002.68-.08 2.19 2.19 0 001.78-.95 2.55 2.55 0 00-1.75-4 50.25 50.25 0 00-5.35 0c-.31 0-.35.17-.35.43v4.12c.03.36.19.5.55.48zM23.31 31.3a30.72 30.72 0 00-3.66-.14h-2.24c-.36 0-.49.08-.49.46v4.95c0 .36.13.47.49.47h4.88a5.36 5.36 0 001.13-.13 2.77 2.77 0 002.27-3 2.56 2.56 0 00-2.38-2.61zM41.31 27.94a3.62 3.62 0 00-4.78 2.66c-.09.4 0 .53.4.53h6c.26 0 .46 0 .45-.37a3.35 3.35 0 00-2.07-2.82z"/><path d="M30 0a30 30 0 1030 30A30 30 0 0030 0zm5.5 20.26c.34-.31 1.06-.08 1.62-.09h6.74c.39 0 .55.08.55.52 0 1.76 0 1.76-1.71 1.76h-6.79c-.39 0-.58-.09-.53-.52.06-.59-.26-1.32.12-1.67zm-5 15a5.76 5.76 0 01-4.27 5 15 15 0 01-4.38.49h-9c-.44 0-.57-.11-.57-.57q0-10.46-.06-20.9c0-.45.09-.57.55-.57 3.7.06 7.41.09 11.1.14a6.7 6.7 0 012.22.4 4.79 4.79 0 013.43 4.44 4.57 4.57 0 01-2.52 4.9c-.09.05-.23.06-.27.25.34.18.7.34 1 .54a5.56 5.56 0 012.75 5.87zm16.6-1.37H37.02c-.43 0-.6.08-.54.56A3.57 3.57 0 0039 37.77a4 4 0 004.42-1.67.46.46 0 01.43-.25h3.22c.49 0 .32.25.24.49A6.74 6.74 0 0142.24 41a10 10 0 01-6.4-.73 6 6 0 01-3.22-3.37 9.79 9.79 0 01.14-7.95 7.34 7.34 0 016.63-4.42 8.72 8.72 0 014.6.79c2.37 1.21 3.36 3.33 3.69 5.84.08.65.06 1.31.14 2s-.11.74-.74.72z"/></svg>