<?xml version="1.0" standalone="no"?>
<!DOCTYPE svg PUBLIC "-//W3C//DTD SVG 20010904//EN"
 "http://www.w3.org/TR/2001/REC-SVG-20010904/DTD/svg10.dtd">
<svg version="1.0" xmlns="http://www.w3.org/2000/svg"
 width="563.000000pt" height="563.000000pt" viewBox="0 0 563.000000 563.000000"
 preserveAspectRatio="xMidYMid meet">
<metadata>
Created by potrace 1.11, written by Peter Selinger 2001-2013
</metadata>
<g transform="translate(0.000000,563.000000) scale(0.100000,-0.100000)"
fill="#000000" stroke="none">
<path d="M1110 5606 c-14 -12 -36 -38 -50 -56 -14 -18 -33 -42 -42 -54 -10
-11 -21 -26 -25 -31 -23 -29 -88 -111 -93 -115 -3 -3 -29 -36 -59 -74 -29 -37
-59 -75 -67 -85 -7 -9 -41 -52 -76 -96 -34 -44 -65 -82 -68 -85 -3 -3 -21 -25
-40 -50 -19 -25 -39 -50 -45 -56 -5 -7 -22 -27 -37 -45 -14 -19 -73 -93 -131
-164 -57 -72 -110 -141 -116 -154 -14 -25 -10 -64 13 -114 18 -41 100 -250
101 -257 1 -7 44 -119 60 -155 7 -16 27 -68 45 -115 17 -47 36 -94 41 -105 5
-11 20 -51 34 -90 14 -38 30 -79 35 -90 5 -11 34 -85 65 -165 30 -80 59 -153
65 -162 5 -10 10 -22 10 -27 0 -5 8 -26 17 -47 9 -22 18 -45 19 -52 1 -7 12
-33 23 -58 12 -24 21 -48 21 -54 0 -6 9 -32 21 -58 30 -66 31 -70 95 -237 31
-82 62 -163 70 -180 7 -16 71 -181 142 -365 71 -184 133 -344 137 -355 5 -11
9 -22 10 -25 1 -3 7 -18 14 -35 6 -16 30 -77 52 -135 22 -58 45 -116 51 -130
15 -35 21 -51 71 -180 24 -63 48 -124 52 -135 5 -11 9 -22 10 -25 7 -20 53
-138 65 -165 4 -11 27 -69 50 -130 23 -60 46 -119 50 -130 5 -11 36 -92 70
-180 34 -88 66 -169 70 -180 5 -11 29 -72 53 -135 24 -63 48 -124 52 -135 5
-11 9 -23 9 -27 1 -3 4 -10 8 -14 5 -4 8 -15 8 -24 0 -10 12 -29 26 -43 l26
-26 792 0 c758 0 794 0 813 18 11 10 25 34 32 52 7 19 17 43 22 54 5 11 34 85
64 165 31 80 62 159 69 175 12 25 26 64 31 85 1 3 7 16 12 30 6 14 32 79 57
145 25 66 51 128 56 137 6 10 10 23 10 29 0 5 11 34 24 62 13 29 26 63 30 77
4 14 11 34 16 45 27 60 70 171 70 178 0 4 8 27 19 50 10 23 33 83 52 132 18
50 35 92 38 95 4 3 8 14 9 25 2 11 8 24 13 30 5 5 9 15 9 22 0 7 8 32 19 56
10 23 29 69 41 102 12 33 26 69 31 80 5 11 17 43 27 70 10 28 23 59 27 70 5
11 9 22 9 25 1 3 21 55 45 115 43 109 95 242 166 425 99 253 177 456 219 565
26 66 51 128 56 137 6 10 10 23 10 29 0 6 6 25 14 42 18 39 97 238 100 252 1
6 10 27 19 49 9 21 17 44 17 50 0 7 4 16 8 22 5 5 17 32 26 59 10 28 22 59 27
70 4 11 18 45 29 75 11 30 25 64 30 75 5 11 32 81 60 155 28 74 55 144 60 155
35 81 80 209 80 226 0 20 -82 135 -145 203 -6 6 -24 29 -40 51 -35 47 -38 50
-107 136 -29 36 -66 82 -83 103 -16 22 -43 55 -60 76 -16 20 -43 53 -60 75
-77 98 -120 150 -127 153 -4 2 -8 10 -8 17 0 7 -4 15 -8 17 -4 2 -57 64 -116
138 -59 74 -115 138 -125 142 -9 4 -197 7 -419 7 l-404 1 -20 -23 c-18 -20
-58 -113 -112 -257 -31 -85 -138 -358 -150 -385 -8 -16 -17 -41 -21 -55 -4
-14 -15 -43 -25 -65 -16 -37 -73 -184 -76 -195 0 -3 -5 -16 -11 -30 -12 -29
-92 -233 -166 -425 -27 -71 -56 -145 -64 -162 -7 -18 -20 -50 -27 -70 -8 -21
-20 -51 -27 -68 -6 -16 -13 -35 -14 -41 -2 -6 -10 -27 -18 -45 -33 -76 -111
-285 -109 -291 1 -5 -2 -8 -8 -8 -5 0 -10 -7 -10 -17 0 -26 -13 -6 -35 55 -42
113 -157 408 -174 447 -10 22 -24 58 -31 80 -7 22 -16 45 -20 50 -4 6 -11 21
-15 35 -8 28 -99 263 -182 469 -29 74 -53 138 -53 142 0 5 -11 33 -25 63 -14
30 -25 58 -25 61 0 4 -6 21 -14 38 -8 18 -35 88 -61 157 -26 69 -53 139 -60
155 -7 17 -41 102 -75 190 -38 99 -70 166 -83 177 -20 15 -62 17 -427 17
l-406 0 -24 -23z"/>
</g>
</svg>
